<svg width="103" height="40" viewBox="0 0 103 40" fill="none" xmlns="http://www.w3.org/2000/svg">
<rect x="0.0200195" y="0.519531" width="102.48" height="39.48" rx="8" fill="white"/>
<path d="M13.8154 24.2595L13.2461 22.3904H10.3833L9.81396 24.2595H8.02002L10.7915 16.3748H12.8271L15.6094 24.2595H13.8154ZM12.8486 20.9939L12.2793 19.1677C12.2435 19.046 12.1951 18.8902 12.1343 18.7004C12.077 18.5071 12.0179 18.3119 11.957 18.115C11.8997 17.9145 11.8532 17.7408 11.8174 17.594C11.7816 17.7408 11.7314 17.9234 11.667 18.1418C11.6061 18.3567 11.547 18.5608 11.4897 18.7542C11.4325 18.9475 11.3913 19.0854 11.3662 19.1677L10.8022 20.9939H12.8486ZM20.6636 22.4763C20.6636 22.8845 20.5669 23.2301 20.3735 23.5129C20.1838 23.7922 19.8991 24.0053 19.5195 24.1521C19.14 24.2953 18.6673 24.3669 18.1016 24.3669C17.6826 24.3669 17.3228 24.3401 17.022 24.2864C16.7248 24.2327 16.424 24.1431 16.1196 24.0178V22.6643C16.4455 22.8111 16.7946 22.9329 17.167 23.0295C17.543 23.1226 17.8724 23.1692 18.1553 23.1692C18.474 23.1692 18.7013 23.1226 18.8374 23.0295C18.9771 22.9329 19.0469 22.8075 19.0469 22.6536C19.0469 22.5533 19.0182 22.4638 18.9609 22.385C18.9072 22.3027 18.7891 22.2113 18.6064 22.1111C18.4238 22.0072 18.1374 21.873 17.7471 21.7083C17.3711 21.5507 17.0614 21.3914 16.8179 21.2302C16.578 21.0691 16.3989 20.8793 16.2808 20.6609C16.1662 20.4389 16.1089 20.1578 16.1089 19.8176C16.1089 19.2626 16.3237 18.8455 16.7534 18.5662C17.1867 18.2833 17.765 18.1418 18.4883 18.1418C18.8607 18.1418 19.2152 18.1794 19.5518 18.2546C19.8919 18.3298 20.241 18.4498 20.5991 18.6145L20.105 19.7961C19.8078 19.6672 19.5267 19.5616 19.2617 19.4792C19.0003 19.3969 18.7336 19.3557 18.4614 19.3557C18.2215 19.3557 18.0407 19.3879 17.9189 19.4524C17.7972 19.5168 17.7363 19.6153 17.7363 19.7478C17.7363 19.8445 17.7668 19.9304 17.8276 20.0056C17.8921 20.0808 18.0138 20.165 18.1929 20.2581C18.3755 20.3476 18.6423 20.4639 18.9932 20.6072C19.3333 20.7468 19.6287 20.8936 19.8794 21.0476C20.13 21.198 20.3234 21.386 20.4595 21.6116C20.5955 21.8336 20.6636 22.1218 20.6636 22.4763ZM28.9888 22.4763C28.9888 22.8845 28.8921 23.2301 28.6987 23.5129C28.509 23.7922 28.2243 24.0053 27.8447 24.1521C27.4652 24.2953 26.9925 24.3669 26.4268 24.3669C26.0078 24.3669 25.6479 24.3401 25.3472 24.2864C25.05 24.2327 24.7492 24.1431 24.4448 24.0178V22.6643C24.7707 22.8111 25.1198 22.9329 25.4922 23.0295C25.8682 23.1226 26.1976 23.1692 26.4805 23.1692C26.7992 23.1692 27.0265 23.1226 27.1626 23.0295C27.3022 22.9329 27.3721 22.8075 27.3721 22.6536C27.3721 22.5533 27.3434 22.4638 27.2861 22.385C27.2324 22.3027 27.1143 22.2113 26.9316 22.1111C26.749 22.0072 26.4626 21.873 26.0723 21.7083C25.6963 21.5507 25.3866 21.3914 25.1431 21.2302C24.9032 21.0691 24.7241 20.8793 24.606 20.6609C24.4914 20.4389 24.4341 20.1578 24.4341 19.8176C24.4341 19.2626 24.6489 18.8455 25.0786 18.5662C25.5119 18.2833 26.0902 18.1418 26.8135 18.1418C27.1859 18.1418 27.5404 18.1794 27.877 18.2546C28.2171 18.3298 28.5662 18.4498 28.9243 18.6145L28.4302 19.7961C28.133 19.6672 27.8519 19.5616 27.5869 19.4792C27.3255 19.3969 27.0588 19.3557 26.7866 19.3557C26.5467 19.3557 26.3659 19.3879 26.2441 19.4524C26.1224 19.5168 26.0615 19.6153 26.0615 19.7478C26.0615 19.8445 26.092 19.9304 26.1528 20.0056C26.2173 20.0808 26.339 20.165 26.5181 20.2581C26.7007 20.3476 26.9674 20.4639 27.3184 20.6072C27.6585 20.7468 27.9539 20.8936 28.2046 21.0476C28.4552 21.198 28.6486 21.386 28.7847 21.6116C28.9207 21.8336 28.9888 22.1218 28.9888 22.4763ZM32.7432 18.1418C33.2982 18.1418 33.7762 18.2493 34.1772 18.4641C34.5783 18.6754 34.888 18.9833 35.1064 19.3879C35.3249 19.7926 35.4341 20.2867 35.4341 20.8704V21.6653H31.5615C31.5794 22.1272 31.7173 22.4906 31.9751 22.7556C32.2365 23.017 32.5981 23.1477 33.0601 23.1477C33.4432 23.1477 33.7941 23.1083 34.1128 23.0295C34.4315 22.9508 34.7591 22.8326 35.0957 22.675V23.9426C34.7985 24.0894 34.487 24.1969 34.1611 24.2649C33.8389 24.3329 33.4468 24.3669 32.9849 24.3669C32.3833 24.3669 31.8498 24.2559 31.3843 24.0339C30.9224 23.8119 30.5589 23.4736 30.2939 23.0188C30.0326 22.564 29.9019 21.9911 29.9019 21.3C29.9019 20.5982 30.02 20.0146 30.2563 19.5491C30.4963 19.08 30.8293 18.7291 31.2554 18.4963C31.6815 18.26 32.1774 18.1418 32.7432 18.1418ZM32.7539 19.3074C32.4352 19.3074 32.1702 19.4094 31.959 19.6135C31.7513 19.8176 31.6313 20.1381 31.5991 20.575H33.8979C33.8944 20.3315 33.8496 20.1148 33.7637 19.925C33.6813 19.7353 33.556 19.5849 33.3877 19.4739C33.223 19.3629 33.0117 19.3074 32.7539 19.3074ZM39.2422 18.1418C39.7972 18.1418 40.2752 18.2493 40.6763 18.4641C41.0773 18.6754 41.387 18.9833 41.6055 19.3879C41.8239 19.7926 41.9331 20.2867 41.9331 20.8704V21.6653H38.0605C38.0785 22.1272 38.2163 22.4906 38.4741 22.7556C38.7355 23.017 39.0972 23.1477 39.5591 23.1477C39.9422 23.1477 40.2931 23.1083 40.6118 23.0295C40.9305 22.9508 41.2581 22.8326 41.5947 22.675V23.9426C41.2975 24.0894 40.986 24.1969 40.6602 24.2649C40.3379 24.3329 39.9458 24.3669 39.4839 24.3669C38.8823 24.3669 38.3488 24.2559 37.8833 24.0339C37.4214 23.8119 37.0579 23.4736 36.793 23.0188C36.5316 22.564 36.4009 21.9911 36.4009 21.3C36.4009 20.5982 36.519 20.0146 36.7554 19.5491C36.9953 19.08 37.3283 18.7291 37.7544 18.4963C38.1805 18.26 38.6764 18.1418 39.2422 18.1418ZM39.2529 19.3074C38.9342 19.3074 38.6693 19.4094 38.458 19.6135C38.2503 19.8176 38.1304 20.1381 38.0981 20.575H40.397C40.3934 20.3315 40.3486 20.1148 40.2627 19.925C40.1803 19.7353 40.055 19.5849 39.8867 19.4739C39.722 19.3629 39.5107 19.3074 39.2529 19.3074ZM46.6758 18.1418C47.3167 18.1418 47.8324 18.3173 48.2227 18.6682C48.613 19.0155 48.8081 19.5741 48.8081 20.344V24.2595H47.1699V20.7522C47.1699 20.3225 47.0911 19.9985 46.9336 19.78C46.7796 19.5616 46.5361 19.4524 46.2031 19.4524C45.7018 19.4524 45.3599 19.6225 45.1772 19.9626C44.9946 20.3028 44.9033 20.7934 44.9033 21.4343V24.2595H43.2651V18.2546H44.5166L44.7368 19.0227H44.8281C44.957 18.815 45.1164 18.6467 45.3062 18.5178C45.4995 18.3889 45.7126 18.294 45.9453 18.2332C46.1816 18.1723 46.4251 18.1418 46.6758 18.1418ZM58.8091 21.2463C58.8091 21.7476 58.741 22.1917 58.605 22.5784C58.4725 22.9651 58.2773 23.2927 58.0195 23.5613C57.7653 23.8263 57.4574 24.0268 57.0957 24.1628C56.7376 24.2989 56.333 24.3669 55.8818 24.3669C55.4593 24.3669 55.0708 24.2989 54.7163 24.1628C54.3654 24.0268 54.0592 23.8263 53.7979 23.5613C53.54 23.2927 53.3395 22.9651 53.1963 22.5784C53.0566 22.1917 52.9868 21.7476 52.9868 21.2463C52.9868 20.5803 53.105 20.0164 53.3413 19.5544C53.5776 19.0925 53.9142 18.7416 54.3511 18.5017C54.7879 18.2618 55.3089 18.1418 55.9141 18.1418C56.4762 18.1418 56.974 18.2618 57.4072 18.5017C57.8441 18.7416 58.186 19.0925 58.4331 19.5544C58.6838 20.0164 58.8091 20.5803 58.8091 21.2463ZM54.6572 21.2463C54.6572 21.6402 54.7002 21.9714 54.7861 22.24C54.8721 22.5085 55.0063 22.7109 55.189 22.8469C55.3716 22.983 55.6097 23.051 55.9033 23.051C56.1934 23.051 56.4279 22.983 56.6069 22.8469C56.7896 22.7109 56.922 22.5085 57.0044 22.24C57.0903 21.9714 57.1333 21.6402 57.1333 21.2463C57.1333 20.8489 57.0903 20.5194 57.0044 20.2581C56.922 19.9931 56.7896 19.7944 56.6069 19.6619C56.4243 19.5294 56.1862 19.4631 55.8926 19.4631C55.4593 19.4631 55.1442 19.6117 54.9473 19.9089C54.7539 20.2061 54.6572 20.6519 54.6572 21.2463ZM63.5732 18.1418C64.2142 18.1418 64.7298 18.3173 65.1201 18.6682C65.5104 19.0155 65.7056 19.5741 65.7056 20.344V24.2595H64.0674V20.7522C64.0674 20.3225 63.9886 19.9985 63.8311 19.78C63.6771 19.5616 63.4336 19.4524 63.1006 19.4524C62.5993 19.4524 62.2573 19.6225 62.0747 19.9626C61.8921 20.3028 61.8008 20.7934 61.8008 21.4343V24.2595H60.1626V18.2546H61.4141L61.6343 19.0227H61.7256C61.8545 18.815 62.0138 18.6467 62.2036 18.5178C62.397 18.3889 62.61 18.294 62.8428 18.2332C63.0791 18.1723 63.3226 18.1418 63.5732 18.1418Z" fill="black"/>
<path d="M82.7593 10.3848C82.389 9.46194 81.487 8.46527 79.7977 8.60217C77.6458 8.83572 76.9752 10.8944 77.3003 12.1226C76.4433 11.5433 74.9859 11.2885 73.7138 12.3763C72.0714 14.0198 72.95 16.2425 73.8528 16.7757C72.8577 16.6837 71.2851 17.355 70.9372 19.1108C70.5671 21.2908 72.2318 22.5617 73.8528 22.5617H91.8282C93.7027 22.5617 94.7428 20.9429 94.6261 19.4162C94.4422 17.4236 92.6157 16.6591 91.6194 16.8229C92.4518 16.3593 93.5636 14.1815 91.8731 12.4694C90.5313 11.1953 88.8207 11.6589 88.2192 12.2146C88.5435 11.1502 88.0118 8.95 85.8353 8.60196C85.685 8.58516 85.5402 8.57617 85.4021 8.57617C83.7407 8.57634 82.9937 9.78871 82.7593 10.3848Z" fill="white"/>
<path d="M74.0133 12.7227C73.0643 13.5804 72.7189 15.5236 74.4297 16.6596L81.2547 21.3341L77.9455 13.7656C77.252 11.9795 75.355 11.5901 74.0133 12.7227Z" fill="#F37021"/>
<path d="M79.889 9.04354C78.7796 9.06607 77.1138 10.385 77.8551 12.3989L81.2777 20.457L82.4804 11.9814C82.7587 9.87539 81.1622 8.90322 79.889 9.04354Z" fill="#CC004C"/>
<path d="M83.0143 11.6577H83.6614C83.6614 11.6577 84.007 11.6577 84.0541 11.8205C83.7994 12.0281 83.1061 12.0541 83.1981 13.1632L84.2862 20.4554L87.6854 12.3761C88.3808 10.5722 86.9213 9.06564 85.6266 9.01958C85.5662 9.01523 85.5055 9.01172 85.4428 9.01172C84.2807 9.01168 82.9491 9.85473 83.0143 11.6577Z" fill="#6460AA"/>
<path d="M87.5485 13.8343L84.3333 21.312L91.1564 16.6129C92.7292 15.4992 92.4755 13.7187 91.5951 12.8387C91.226 12.4245 90.5483 12.1045 89.8304 12.1045C88.9823 12.1044 88.0746 12.5534 87.5485 13.8343Z" fill="#0089D0"/>
<path d="M90.3933 17.6769L83.9856 22.1449H91.8753C93.4939 22.1449 94.5342 20.4787 94.0718 18.9498C93.7621 17.9889 92.8457 17.2345 91.7822 17.2334C91.3345 17.2336 90.8598 17.3682 90.3933 17.6769Z" fill="#0DB14B"/>
<path d="M73.8308 22.1458H81.6041L75.1948 17.6778C73.7142 16.7281 72.0492 17.2838 71.4481 18.8598C70.9386 20.6639 72.2107 22.1458 73.8308 22.1458Z" fill="#FCB711"/>
<path d="M82.437 28.2581H83.879C84.2105 28.279 84.7981 28.5679 84.7981 29.2521C84.7981 29.9678 84.1882 30.2566 83.8578 30.2892H82.437V28.2581ZM82.415 25.072H83.6019C84.0076 25.0939 84.4874 25.3932 84.4874 25.9488C84.4874 26.4939 84.1247 26.8571 83.6554 26.9219H82.415V25.072V25.072ZM80.7922 23.7461V31.6137H84.6163C85.5239 31.6137 86.6029 30.7056 86.6029 29.519C86.6029 28.2791 85.7915 27.6702 85.2781 27.4242C85.2781 27.4242 86.2181 26.8791 86.1764 25.7029C86.1336 24.1207 84.6695 23.7461 84.1676 23.7461H80.7922Z" fill="black"/>
<path d="M74.9267 31.6124V27.0809L79.8833 31.9117V23.7448H78.2177V28.1604L73.26 23.4248V31.6124H74.9267Z" fill="black"/>
<path d="M86.8733 27.5949C86.9151 30.083 88.7058 31.9431 91.0079 31.9431C91.5538 31.9431 92.1288 31.84 92.7165 31.6139V30.0109C92.2507 30.295 91.7325 30.432 91.2247 30.432C89.8316 30.432 88.5171 29.4029 88.5715 27.531C88.6653 26.0126 89.9105 24.9642 91.2525 24.9642C91.7439 24.9642 92.2494 25.1055 92.7165 25.4143V23.8541C92.1718 23.6337 91.6304 23.5352 91.1089 23.5352C88.8125 23.5351 86.9174 25.4688 86.8733 27.5949Z" fill="black"/>
</svg>
