<svg width="167" height="40" viewBox="0 0 167 40" fill="none" xmlns="http://www.w3.org/2000/svg">
<path opacity="0.8" d="M3.15079 32.483V34.679H6.30979V35.453H3.15079V38H2.25079V31.7H6.69679V32.483H3.15079ZM12.0874 38.072C11.4514 38.072 10.8784 37.934 10.3684 37.658C9.85836 37.376 9.45636 36.989 9.16236 36.497C8.87436 36.005 8.73036 35.456 8.73036 34.85C8.73036 34.244 8.87436 33.695 9.16236 33.203C9.45636 32.711 9.85836 32.327 10.3684 32.051C10.8784 31.769 11.4514 31.628 12.0874 31.628C12.7174 31.628 13.2874 31.769 13.7974 32.051C14.3074 32.327 14.7064 32.711 14.9944 33.203C15.2824 33.689 15.4264 34.238 15.4264 34.85C15.4264 35.462 15.2824 36.014 14.9944 36.506C14.7064 36.992 14.3074 37.376 13.7974 37.658C13.2874 37.934 12.7174 38.072 12.0874 38.072ZM12.0874 37.271C12.5494 37.271 12.9634 37.166 13.3294 36.956C13.7014 36.746 13.9924 36.458 14.2024 36.092C14.4184 35.72 14.5264 35.306 14.5264 34.85C14.5264 34.394 14.4184 33.983 14.2024 33.617C13.9924 33.245 13.7014 32.954 13.3294 32.744C12.9634 32.534 12.5494 32.429 12.0874 32.429C11.6254 32.429 11.2054 32.534 10.8274 32.744C10.4554 32.954 10.1614 33.245 9.94536 33.617C9.73536 33.983 9.63036 34.394 9.63036 34.85C9.63036 35.306 9.73536 35.72 9.94536 36.092C10.1614 36.458 10.4554 36.746 10.8274 36.956C11.2054 37.166 11.6254 37.271 12.0874 37.271ZM22.364 38L21.005 36.065C20.837 36.077 20.705 36.083 20.609 36.083H19.052V38H18.152V31.7H20.609C21.425 31.7 22.067 31.895 22.535 32.285C23.003 32.675 23.237 33.212 23.237 33.896C23.237 34.382 23.117 34.796 22.877 35.138C22.637 35.48 22.295 35.729 21.851 35.885L23.345 38H22.364ZM20.582 35.318C21.152 35.318 21.587 35.195 21.887 34.949C22.187 34.703 22.337 34.352 22.337 33.896C22.337 33.44 22.187 33.092 21.887 32.852C21.587 32.606 21.152 32.483 20.582 32.483H19.052V35.318H20.582ZM35.226 31.7V38H34.326V35.192H30.708V38H29.808V31.7H30.708V34.409H34.326V31.7H35.226ZM41.3057 38.072C40.6697 38.072 40.0967 37.934 39.5867 37.658C39.0767 37.376 38.6747 36.989 38.3807 36.497C38.0927 36.005 37.9487 35.456 37.9487 34.85C37.9487 34.244 38.0927 33.695 38.3807 33.203C38.6747 32.711 39.0767 32.327 39.5867 32.051C40.0967 31.769 40.6697 31.628 41.3057 31.628C41.9357 31.628 42.5057 31.769 43.0157 32.051C43.5257 32.327 43.9247 32.711 44.2127 33.203C44.5007 33.689 44.6447 34.238 44.6447 34.85C44.6447 35.462 44.5007 36.014 44.2127 36.506C43.9247 36.992 43.5257 37.376 43.0157 37.658C42.5057 37.934 41.9357 38.072 41.3057 38.072ZM41.3057 37.271C41.7677 37.271 42.1817 37.166 42.5477 36.956C42.9197 36.746 43.2107 36.458 43.4207 36.092C43.6367 35.72 43.7447 35.306 43.7447 34.85C43.7447 34.394 43.6367 33.983 43.4207 33.617C43.2107 33.245 42.9197 32.954 42.5477 32.744C42.1817 32.534 41.7677 32.429 41.3057 32.429C40.8437 32.429 40.4237 32.534 40.0457 32.744C39.6737 32.954 39.3797 33.245 39.1637 33.617C38.9537 33.983 38.8487 34.394 38.8487 34.85C38.8487 35.306 38.9537 35.72 39.1637 36.092C39.3797 36.458 39.6737 36.746 40.0457 36.956C40.4237 37.166 40.8437 37.271 41.3057 37.271ZM53.2113 38L53.2023 33.41L50.9253 37.235H50.5113L48.2343 33.437V38H47.3703V31.7H48.1083L50.7363 36.128L53.3283 31.7H54.0663L54.0753 38H53.2113ZM61.888 37.217V38H57.316V31.7H61.762V32.483H58.216V34.418H61.375V35.183H58.216V37.217H61.888ZM67.5129 38.072C66.8769 38.072 66.3039 37.934 65.7939 37.658C65.2839 37.376 64.8819 36.989 64.5879 36.497C64.2999 36.005 64.1559 35.456 64.1559 34.85C64.1559 34.244 64.2999 33.695 64.5879 33.203C64.8819 32.711 65.2839 32.327 65.7939 32.051C66.3039 31.769 66.8769 31.628 67.5129 31.628C68.1429 31.628 68.7129 31.769 69.2229 32.051C69.7329 32.327 70.1319 32.711 70.4199 33.203C70.7079 33.689 70.8519 34.238 70.8519 34.85C70.8519 35.462 70.7079 36.014 70.4199 36.506C70.1319 36.992 69.7329 37.376 69.2229 37.658C68.7129 37.934 68.1429 38.072 67.5129 38.072ZM67.5129 37.271C67.9749 37.271 68.3889 37.166 68.7549 36.956C69.1269 36.746 69.4179 36.458 69.6279 36.092C69.8439 35.72 69.9519 35.306 69.9519 34.85C69.9519 34.394 69.8439 33.983 69.6279 33.617C69.4179 33.245 69.1269 32.954 68.7549 32.744C68.3889 32.534 67.9749 32.429 67.5129 32.429C67.0509 32.429 66.6309 32.534 66.2529 32.744C65.8809 32.954 65.5869 33.245 65.3709 33.617C65.1609 33.983 65.0559 34.394 65.0559 34.85C65.0559 35.306 65.1609 35.72 65.3709 36.092C65.5869 36.458 65.8809 36.746 66.2529 36.956C66.6309 37.166 67.0509 37.271 67.5129 37.271ZM82.2764 31.7L80.1704 38H79.2254L77.5064 32.969L75.7874 38H74.8244L72.7184 31.7H73.6454L75.3464 36.821L77.1194 31.7H77.9474L79.6844 36.848L81.4214 31.7H82.2764ZM90.1453 31.7V38H89.4073L85.6273 33.302V38H84.7273V31.7H85.4653L89.2453 36.398V31.7H90.1453ZM97.9531 37.217V38H93.3811V31.7H97.8271V32.483H94.2811V34.418H97.4401V35.183H94.2811V37.217H97.9531ZM104.972 38L103.613 36.065C103.445 36.077 103.313 36.083 103.217 36.083H101.66V38H100.76V31.7H103.217C104.033 31.7 104.675 31.895 105.143 32.285C105.611 32.675 105.845 33.212 105.845 33.896C105.845 34.382 105.725 34.796 105.485 35.138C105.245 35.48 104.903 35.729 104.459 35.885L105.953 38H104.972ZM103.19 35.318C103.76 35.318 104.195 35.195 104.495 34.949C104.795 34.703 104.945 34.352 104.945 33.896C104.945 33.44 104.795 33.092 104.495 32.852C104.195 32.606 103.76 32.483 103.19 32.483H101.66V35.318H103.19ZM110.485 38.072C110.011 38.072 109.552 38 109.108 37.856C108.67 37.706 108.325 37.514 108.073 37.28L108.406 36.578C108.646 36.794 108.952 36.971 109.324 37.109C109.702 37.241 110.089 37.307 110.485 37.307C111.007 37.307 111.397 37.22 111.655 37.046C111.913 36.866 112.042 36.629 112.042 36.335C112.042 36.119 111.97 35.945 111.826 35.813C111.688 35.675 111.514 35.57 111.304 35.498C111.1 35.426 110.809 35.345 110.431 35.255C109.957 35.141 109.573 35.027 109.279 34.913C108.991 34.799 108.742 34.625 108.532 34.391C108.328 34.151 108.226 33.83 108.226 33.428C108.226 33.092 108.313 32.789 108.487 32.519C108.667 32.249 108.937 32.033 109.297 31.871C109.657 31.709 110.104 31.628 110.638 31.628C111.01 31.628 111.376 31.676 111.736 31.772C112.096 31.868 112.405 32.006 112.663 32.186L112.366 32.906C112.102 32.738 111.82 32.612 111.52 32.528C111.22 32.438 110.926 32.393 110.638 32.393C110.128 32.393 109.744 32.486 109.486 32.672C109.234 32.858 109.108 33.098 109.108 33.392C109.108 33.608 109.18 33.785 109.324 33.923C109.468 34.055 109.645 34.16 109.855 34.238C110.071 34.31 110.362 34.388 110.728 34.472C111.202 34.586 111.583 34.7 111.871 34.814C112.159 34.928 112.405 35.102 112.609 35.336C112.819 35.57 112.924 35.885 112.924 36.281C112.924 36.611 112.834 36.914 112.654 37.19C112.474 37.46 112.201 37.676 111.835 37.838C111.469 37.994 111.019 38.072 110.485 38.072Z" fill="white"/>
<path d="M14.1101 6.07801V12.7501H6.4227V6.07801H2.50646V23H6.4227V16.062H14.1101V23H18.0263V6.07801H14.1101ZM27.9527 23.1934C32.0865 23.1934 35.0841 20.4134 35.0841 16.4971C35.0841 12.5809 32.0865 9.80085 27.9527 9.80085C23.8189 9.80085 20.7971 12.5809 20.7971 16.4971C20.7971 20.4134 23.8189 23.1934 27.9527 23.1934ZM27.9527 20.0991C26.0671 20.0991 24.6167 18.7453 24.6167 16.4971C24.6167 14.2489 26.0671 12.8952 27.9527 12.8952C29.8383 12.8952 31.2646 14.2489 31.2646 16.4971C31.2646 18.7453 29.8383 20.0991 27.9527 20.0991ZM54.2609 9.80085C52.3028 9.80085 50.6106 10.5986 49.5711 11.9282C48.6525 10.5019 47.1053 9.80085 45.2923 9.80085C43.6243 9.80085 42.1738 10.381 41.2068 11.493V9.99424H37.6049V23H41.376V16.4729C41.376 14.1522 42.5606 13.0644 44.2286 13.0644C45.7999 13.0644 46.6944 14.0313 46.6944 16.1345V23H50.4656V16.4729C50.4656 14.1522 51.6501 13.0644 53.3423 13.0644C54.8653 13.0644 55.8081 14.0313 55.8081 16.1345V23H59.5793V15.5543C59.5793 11.5897 57.3552 9.80085 54.2609 9.80085ZM75.841 16.5455C75.841 12.3633 72.8917 9.80085 69.0722 9.80085C65.1076 9.80085 62.1342 12.6051 62.1342 16.4971C62.1342 20.365 65.0593 23.1934 69.5557 23.1934C71.9006 23.1934 73.7137 22.4682 74.9224 21.0902L72.9159 18.9145C72.0215 19.7606 71.0303 20.1716 69.6524 20.1716C67.6701 20.1716 66.2922 19.1805 65.9295 17.5608H75.7685C75.7926 17.2465 75.841 16.8356 75.841 16.5455ZM69.0964 12.6534C70.7886 12.6534 72.0215 13.7171 72.2874 15.3609H65.8812C66.1471 13.6929 67.38 12.6534 69.0964 12.6534ZM91.0432 14.2006C92.4211 13.4753 93.2914 12.1699 93.2914 10.4777C93.2914 7.84273 91.1157 6.07801 86.8852 6.07801H78.6176V23H87.3687C91.8168 23 94.1375 21.3078 94.1375 18.3827C94.1375 16.2554 92.9288 14.8049 91.0432 14.2006ZM86.4018 9.02727C88.3115 9.02727 89.351 9.67998 89.351 11.0096C89.351 12.3391 88.3115 13.016 86.4018 13.016H82.5097V9.02727H86.4018ZM87.0786 20.0507H82.5097V15.8686H87.0786C89.1093 15.8686 90.1971 16.5455 90.1971 17.9718C90.1971 19.4222 89.1093 20.0507 87.0786 20.0507ZM106.168 9.99424V16.4246C106.168 18.8179 104.911 19.9299 103.17 19.9299C101.502 19.9299 100.535 18.9629 100.535 16.7872V9.99424H96.764V17.3432C96.764 21.3561 99.0606 23.1934 102.324 23.1934C103.92 23.1934 105.37 22.589 106.361 21.4528V23H109.939V9.99424H106.168ZM122.909 5.06269V11.3722C121.966 10.3085 120.613 9.80085 119.017 9.80085C115.343 9.80085 112.514 12.4117 112.514 16.4971C112.514 20.5826 115.343 23.1934 119.017 23.1934C120.758 23.1934 122.135 22.6374 123.078 21.5012V23H126.68V5.06269H122.909ZM119.67 20.0991C117.784 20.0991 116.334 18.7453 116.334 16.4971C116.334 14.2489 117.784 12.8952 119.67 12.8952C121.531 12.8952 122.982 14.2489 122.982 16.4971C122.982 18.7453 121.531 20.0991 119.67 20.0991ZM139.647 5.06269V11.3722C138.704 10.3085 137.35 9.80085 135.755 9.80085C132.08 9.80085 129.252 12.4117 129.252 16.4971C129.252 20.5826 132.08 23.1934 135.755 23.1934C137.495 23.1934 138.873 22.6374 139.816 21.5012V23H143.418V5.06269H139.647ZM136.408 20.0991C134.522 20.0991 133.072 18.7453 133.072 16.4971C133.072 14.2489 134.522 12.8952 136.408 12.8952C138.269 12.8952 139.719 14.2489 139.719 16.4971C139.719 18.7453 138.269 20.0991 136.408 20.0991ZM156.191 9.99424L152.517 18.8179L148.867 9.99424H144.974L150.607 23.0967L150.559 23.2176C150.051 24.3779 149.471 24.8372 148.431 24.8372C147.682 24.8372 146.884 24.523 146.304 24.0153L144.926 26.6987C145.772 27.4481 147.223 27.8832 148.552 27.8832C150.897 27.8832 152.686 26.9404 153.943 23.7978L159.817 9.99424H156.191Z" fill="white"/>
<path d="M162.783 23.1934C164.088 23.1934 165.128 22.2022 165.128 20.8243C165.128 19.4222 164.088 18.5036 162.783 18.5036C161.477 18.5036 160.438 19.4222 160.438 20.8243C160.438 22.2022 161.477 23.1934 162.783 23.1934Z" fill="#FA8C16"/>
</svg>
