<svg width="203" height="30" viewBox="0 0 203 30" fill="none" xmlns="http://www.w3.org/2000/svg">
<path d="M15.39 2H20.25V23H15.39V2ZM5.85 23H0.99V2H5.85V23ZM15.75 14.39H5.49V10.28H15.75V14.39ZM32.5685 23.24C30.8485 23.24 29.3185 22.88 27.9785 22.16C26.6585 21.44 25.6085 20.46 24.8285 19.22C24.0685 17.96 23.6885 16.53 23.6885 14.93C23.6885 13.31 24.0685 11.88 24.8285 10.64C25.6085 9.38 26.6585 8.4 27.9785 7.7C29.3185 6.98 30.8485 6.62 32.5685 6.62C34.2685 6.62 35.7885 6.98 37.1285 7.7C38.4685 8.4 39.5185 9.37 40.2785 10.61C41.0385 11.85 41.4185 13.29 41.4185 14.93C41.4185 16.53 41.0385 17.96 40.2785 19.22C39.5185 20.46 38.4685 21.44 37.1285 22.16C35.7885 22.88 34.2685 23.24 32.5685 23.24ZM32.5685 19.4C33.3485 19.4 34.0485 19.22 34.6685 18.86C35.2885 18.5 35.7785 17.99 36.1385 17.33C36.4985 16.65 36.6785 15.85 36.6785 14.93C36.6785 13.99 36.4985 13.19 36.1385 12.53C35.7785 11.87 35.2885 11.36 34.6685 11C34.0485 10.64 33.3485 10.46 32.5685 10.46C31.7885 10.46 31.0885 10.64 30.4685 11C29.8485 11.36 29.3485 11.87 28.9685 12.53C28.6085 13.19 28.4285 13.99 28.4285 14.93C28.4285 15.85 28.6085 16.65 28.9685 17.33C29.3485 17.99 29.8485 18.5 30.4685 18.86C31.0885 19.22 31.7885 19.4 32.5685 19.4ZM65.2167 6.62C66.4967 6.62 67.6267 6.88 68.6067 7.4C69.6067 7.9 70.3867 8.68 70.9467 9.74C71.5267 10.78 71.8167 12.12 71.8167 13.76V23H67.1367V14.48C67.1367 13.18 66.8667 12.22 66.3267 11.6C65.7867 10.98 65.0267 10.67 64.0467 10.67C63.3667 10.67 62.7567 10.83 62.2167 11.15C61.6767 11.45 61.2567 11.91 60.9567 12.53C60.6567 13.15 60.5067 13.94 60.5067 14.9V23H55.8267V14.48C55.8267 13.18 55.5567 12.22 55.0167 11.6C54.4967 10.98 53.7467 10.67 52.7667 10.67C52.0867 10.67 51.4767 10.83 50.9367 11.15C50.3967 11.45 49.9767 11.91 49.6767 12.53C49.3767 13.15 49.2267 13.94 49.2267 14.9V23H44.5467V6.86H49.0167V11.27L48.1767 9.98C48.7367 8.88 49.5267 8.05 50.5467 7.49C51.5867 6.91 52.7667 6.62 54.0867 6.62C55.5667 6.62 56.8567 7 57.9567 7.76C59.0767 8.5 59.8167 9.64 60.1767 11.18L58.5267 10.73C59.0667 9.47 59.9267 8.47 61.1067 7.73C62.3067 6.99 63.6767 6.62 65.2167 6.62ZM84.1388 23.24C82.2988 23.24 80.6788 22.88 79.2788 22.16C77.8988 21.44 76.8288 20.46 76.0688 19.22C75.3088 17.96 74.9288 16.53 74.9288 14.93C74.9288 13.31 75.2988 11.88 76.0388 10.64C76.7988 9.38 77.8288 8.4 79.1288 7.7C80.4288 6.98 81.8988 6.62 83.5388 6.62C85.1188 6.62 86.5388 6.96 87.7988 7.64C89.0788 8.3 90.0888 9.26 90.8288 10.52C91.5688 11.76 91.9388 13.25 91.9388 14.99C91.9388 15.17 91.9288 15.38 91.9088 15.62C91.8888 15.84 91.8688 16.05 91.8488 16.25H78.7388V13.52H89.3887L87.5888 14.33C87.5888 13.49 87.4188 12.76 87.0788 12.14C86.7388 11.52 86.2688 11.04 85.6688 10.7C85.0688 10.34 84.3688 10.16 83.5688 10.16C82.7688 10.16 82.0588 10.34 81.4388 10.7C80.8388 11.04 80.3688 11.53 80.0288 12.17C79.6888 12.79 79.5188 13.53 79.5188 14.39V15.11C79.5188 15.99 79.7088 16.77 80.0888 17.45C80.4888 18.11 81.0388 18.62 81.7388 18.98C82.4588 19.32 83.2988 19.49 84.2588 19.49C85.1188 19.49 85.8688 19.36 86.5088 19.1C87.1688 18.84 87.7688 18.45 88.3088 17.93L90.7988 20.63C90.0588 21.47 89.1288 22.12 88.0088 22.58C86.8888 23.02 85.5988 23.24 84.1388 23.24ZM95.3845 23V2H105.645C108.285 2 110.265 2.5 111.585 3.5C112.925 4.5 113.595 5.82 113.595 7.46C113.595 8.56 113.325 9.52 112.785 10.34C112.245 11.14 111.505 11.76 110.565 12.2C109.625 12.64 108.545 12.86 107.325 12.86L107.895 11.63C109.215 11.63 110.385 11.85 111.405 12.29C112.425 12.71 113.215 13.34 113.775 14.18C114.355 15.02 114.645 16.05 114.645 17.27C114.645 19.07 113.935 20.48 112.515 21.5C111.095 22.5 109.005 23 106.245 23H95.3845ZM100.215 19.34H105.885C107.145 19.34 108.095 19.14 108.735 18.74C109.395 18.32 109.725 17.66 109.725 16.76C109.725 15.88 109.395 15.23 108.735 14.81C108.095 14.37 107.145 14.15 105.885 14.15H99.8545V10.61H105.045C106.225 10.61 107.125 10.41 107.745 10.01C108.385 9.59 108.705 8.96 108.705 8.12C108.705 7.3 108.385 6.69 107.745 6.29C107.125 5.87 106.225 5.66 105.045 5.66H100.215V19.34ZM124.804 23.24C123.464 23.24 122.264 22.98 121.204 22.46C120.164 21.94 119.354 21.15 118.774 20.09C118.194 19.01 117.904 17.64 117.904 15.98V6.86H122.584V15.29C122.584 16.63 122.864 17.62 123.424 18.26C124.004 18.88 124.814 19.19 125.854 19.19C126.574 19.19 127.214 19.04 127.774 18.74C128.334 18.42 128.774 17.94 129.094 17.3C129.414 16.64 129.574 15.82 129.574 14.84V6.86H134.254V23H129.814V18.56L130.624 19.85C130.084 20.97 129.284 21.82 128.224 22.4C127.184 22.96 126.044 23.24 124.804 23.24ZM145.52 23.24C144 23.24 142.63 22.9 141.41 22.22C140.19 21.52 139.22 20.55 138.5 19.31C137.8 18.07 137.45 16.61 137.45 14.93C137.45 13.23 137.8 11.76 138.5 10.52C139.22 9.28 140.19 8.32 141.41 7.64C142.63 6.96 144 6.62 145.52 6.62C146.88 6.62 148.07 6.92 149.09 7.52C150.11 8.12 150.9 9.03 151.46 10.25C152.02 11.47 152.3 13.03 152.3 14.93C152.3 16.81 152.03 18.37 151.49 19.61C150.95 20.83 150.17 21.74 149.15 22.34C148.15 22.94 146.94 23.24 145.52 23.24ZM146.33 19.4C147.09 19.4 147.78 19.22 148.4 18.86C149.02 18.5 149.51 17.99 149.87 17.33C150.25 16.65 150.44 15.85 150.44 14.93C150.44 13.99 150.25 13.19 149.87 12.53C149.51 11.87 149.02 11.36 148.4 11C147.78 10.64 147.09 10.46 146.33 10.46C145.55 10.46 144.85 10.64 144.23 11C143.61 11.36 143.11 11.87 142.73 12.53C142.37 13.19 142.19 13.99 142.19 14.93C142.19 15.85 142.37 16.65 142.73 17.33C143.11 17.99 143.61 18.5 144.23 18.86C144.85 19.22 145.55 19.4 146.33 19.4ZM150.56 23V19.7L150.65 14.9L150.35 10.13V0.739999H155.03V23H150.56ZM166.291 23.24C164.771 23.24 163.401 22.9 162.181 22.22C160.961 21.52 159.991 20.55 159.271 19.31C158.571 18.07 158.221 16.61 158.221 14.93C158.221 13.23 158.571 11.76 159.271 10.52C159.991 9.28 160.961 8.32 162.181 7.64C163.401 6.96 164.771 6.62 166.291 6.62C167.651 6.62 168.841 6.92 169.861 7.52C170.881 8.12 171.671 9.03 172.231 10.25C172.791 11.47 173.071 13.03 173.071 14.93C173.071 16.81 172.801 18.37 172.261 19.61C171.721 20.83 170.941 21.74 169.921 22.34C168.921 22.94 167.711 23.24 166.291 23.24ZM167.101 19.4C167.861 19.4 168.551 19.22 169.171 18.86C169.791 18.5 170.281 17.99 170.641 17.33C171.021 16.65 171.211 15.85 171.211 14.93C171.211 13.99 171.021 13.19 170.641 12.53C170.281 11.87 169.791 11.36 169.171 11C168.551 10.64 167.861 10.46 167.101 10.46C166.321 10.46 165.621 10.64 165.001 11C164.381 11.36 163.881 11.87 163.501 12.53C163.141 13.19 162.961 13.99 162.961 14.93C162.961 15.85 163.141 16.65 163.501 17.33C163.881 17.99 164.381 18.5 165.001 18.86C165.621 19.22 166.321 19.4 167.101 19.4ZM171.331 23V19.7L171.421 14.9L171.121 10.13V0.739999H175.801V23H171.331Z" fill="white"/>
<path d="M182.173 29.06C181.333 29.06 180.503 28.93 179.683 28.67C178.863 28.41 178.193 28.05 177.673 27.59L179.383 24.26C179.743 24.58 180.153 24.83 180.613 25.01C181.093 25.19 181.563 25.28 182.023 25.28C182.683 25.28 183.203 25.12 183.583 24.8C183.983 24.5 184.343 23.99 184.663 23.27L185.503 21.29L185.863 20.78L191.653 6.86H196.153L188.863 23.99C188.343 25.29 187.743 26.31 187.063 27.05C186.403 27.79 185.663 28.31 184.843 28.61C184.043 28.91 183.153 29.06 182.173 29.06ZM184.933 23.63L177.733 6.86H182.563L188.143 20.36L184.933 23.63Z" fill="#FDFDFF"/>
<path d="M199.832 23.24C199.032 23.24 198.342 22.97 197.762 22.43C197.202 21.87 196.922 21.16 196.922 20.3C196.922 19.44 197.202 18.75 197.762 18.23C198.342 17.69 199.032 17.42 199.832 17.42C200.652 17.42 201.342 17.69 201.902 18.23C202.462 18.75 202.742 19.44 202.742 20.3C202.742 21.16 202.462 21.87 201.902 22.43C201.342 22.97 200.652 23.24 199.832 23.24Z" fill="#FA8C16"/>
</svg>
